#!OML:ASF E:\emotionWalksFemale\Project 1\Capture day 1\Session 1\Female1.ASF
:FULLY-SPECIFIED
:DEGREES
172
root 7.82219 15.1494 41.8136 176.319 -2.05939 -179.156
lowerback 7.96341 0.937091 1.87167
upperback -4.11285 1.41529 -0.0576244
thorax -8.78579 0.55235 -1.32741
lowerneck -9.94862 -1.64638 -4.72517
upperneck 23.1786 -3.02297 1.86389
head 8.98301 -2.10607 1.03696
rclavicle -3.88873e-015 3.57812e-015
rhumerus -48.7478 22.394 -103.732
rradius 34.068
rwrist 9.86177
rhand -4.02929 -55.6933
rfingers 7.12502
rthumb 21.7258 -84.4941
lclavicle -3.88873e-015 3.57812e-015
lhumerus -45.4421 4.78952 82.1625
lradius 38.6686
lwrist -17.6043
lhand -7.02684 -25.8662
lfingers 7.12502
lthumb 18.845 3.24092
rfemur -1.86768 18.9227 29.4288
rtibia 25.672
rfoot -24.2672 -35.9087
rtoes -7.39638
lfemur -7.49842 -21.9028 -24.7865
ltibia 31.1113
lfoot -23.4858 18.161
ltoes -30.8667
173
root 7.82176 15.1434 41.813 176.3 -2.05922 -179.163
lowerback 7.98086 0.943521 1.85418
upperback -4.10489 1.42316 -0.0517237
thorax -8.78763 0.557641 -1.31284
lowerneck -9.8774 -1.65933 -4.72544
upperneck 23.1304 -3.02526 1.78724
head 8.95222 -2.11484 1.01173
rclavicle -8.69062e-015 -1.83876e-015
rhumerus -48.6839 22.1835 -103.533
rradius 34.0997
rwrist 9.82764
rhand -4.04498 -55.4748
rfingers 7.12502
rthumb 21.7108 -84.2774
lclavicle -8.69062e-015 -1.83876e-015
lhumerus -45.5986 4.61995 82.2201
lradius 38.9563
lwrist -17.0363
lhand -7.4924 -25.7532
lfingers 7.12502
lthumb 18.3972 3.39688
rfemur -1.76088 18.9831 29.4307
rtibia 25.4699
rfoot -24.1141 -36.0169
rtoes -7.63477
lfemur -7.5592 -21.8585 -24.8025
ltibia 31.2897
lfoot -23.6104 18.1213
ltoes -30.9052
174
root 7.82122 15.1362 41.8128 176.274 -2.0785 -179.149
lowerback 8.01322 0.930429 1.80193
upperback -4.10599 1.40399 -0.00478598
thorax -8.81081 0.552632 -1.23151
lowerneck -9.79957 -1.64795 -4.77499
upperneck 23.0896 -2.99973 1.76769
head 8.92327 -2.10988 1.01718
rclavicle -4.44159e-015 -3.37934e-015
rhumerus -48.6397 21.9533 -103.264
rradius 34.2547
rwrist 9.96269
rhand -3.72336 -55.747
rfingers 7.12502
rthumb 22.0196 -84.5135
lclavicle -4.44159e-015 -3.37934e-015
lhumerus -45.6522 4.78571 82.1623
lradius 38.9346
lwrist -17.1523
lhand -7.24849 -26.0388
lfingers 7.12502
lthumb 18.6318 3.08889
rfemur -1.72382 19.0248 29.4508
rtibia 25.3815
rfoot -23.7855 -36.1866
rtoes -7.98963
lfemur -7.57888 -21.6934 -24.7805
ltibia 31.3758
lfoot -23.6408 18.0025
ltoes -31.1568
175
root 7.81989 15.1416 41.8122 176.371 -2.10249 -179.155
lowerback 7.92733 0.927586 1.74885
upperback -4.12279 1.39326 0.028279
thorax -8.78091 0.551235 -1.16326
lowerneck -9.79859 -1.65243 -4.88434
upperneck 23.0702 -2.99881 1.83805
head 8.9192 -2.11039 1.05984
rclavicle 1.26663e-014 -1.44119e-015
rhumerus -48.4945 21.6885 -102.924
rradius 34.3379
rwrist 10.2434
rhand -3.45407 -55.809
rfingers 7.12502
rthumb 22.2781 -84.5449
lclavicle 1.26663e-014 -1.44119e-015
lhumerus -45.6909 4.9627 82.0982
lradius 38.8626
lwrist -17.5276
lhand -10.26 -26.3354
lfingers 7.12502
lthumb 15.7333 3.04504
rfemur -1.83629 18.9153 29.3982
rtibia 25.392
rfoot -23.8354 -36.0518
rtoes -7.19841
lfemur -7.70032 -21.591 -24.7316
ltibia 31.3739
lfoot -23.5621 17.9618
ltoes -31.6892
176
root 7.8197 15.1483 41.8106 176.487 -2.06893 -179.158
lowerback 7.81306 0.951548 1.71736
upperback -4.13332 1.41806 0.0298376
thorax -8.72515 0.565254 -1.14527
lowerneck -9.91313 -1.65981 -4.90264
upperneck 23.1568 -3.01371 1.88306
head 8.97198 -2.11496 1.07487
rclavicle 1.12189e-014 4.72114e-016
rhumerus -48.2614 21.2499 -102.478
rradius 34.3656
rwrist 10.6011
rhand -3.16047 -55.4577
rfingers 7.12502
rthumb 22.56 -84.1595
lclavicle 1.12189e-014 4.72114e-016
lhumerus -45.6281 5.28117 81.8792
lradius 38.9271
lwrist -17.258
lhand -7.81145 -25.6645
lfingers 7.12502
lthumb 18.0902 3.51422
rfemur -1.96364 18.9059 29.3601
rtibia 25.4374
rfoot -24.1387 -35.874
rtoes -6.09031
lfemur -7.80751 -21.592 -24.6766
ltibia 31.333
lfoot -23.6249 17.9332
ltoes -31.4597
177
root 7.81913 15.1481 41.8093 176.547 -2.01953 -179.185
lowerback 7.7499 0.984191 1.70439
upperback -4.13794 1.45631 0.00247344
thorax -8.69144 0.583894 -1.17135
lowerneck -9.91615 -1.65706 -4.9
upperneck 23.1986 -3.02913 1.93789
head 8.98814 -2.11861 1.09101
rclavicle 3.65888e-015 1.09332e-015
rhumerus -47.9576 20.4568 -101.791
rradius 34.3854
rwrist 11.3172
rhand -2.68839 -54.8285
rfingers 7.12502
rthumb 23.013 -83.4746
lclavicle 3.65888e-015 1.09332e-015
lhumerus -45.5598 5.56141 81.6485
lradius 39.0612
lwrist -16.6069
lhand -8.38675 -25.7846
lfingers 7.12502
lthumb 17.5367 3.44446
rfemur -2.06678 18.9704 29.3153
rtibia 25.5095
rfoot -24.0974 -35.9106
rtoes -6.64263
lfemur -7.83564 -21.5361 -24.677
ltibia 31.2664
lfoot -23.7448 17.8866
ltoes -31.1051
178
root 7.81786 15.1484 41.8107 176.589 -1.97503 -179.217
lowerback 7.78289 1.02101 1.64579
upperback -4.15686 1.5015 0.0311513
thorax -8.73212 0.609336 -1.1158
lowerneck -9.92723 -1.66692 -4.97948
upperneck 23.2371 -3.02427 1.9068
head 9.00442 -2.12808 1.09385
rclavicle -1.01815e-014 -8.44835e-016
rhumerus -47.5542 19.3494 -100.735
rradius 34.3165
rwrist 12.5594
rhand -2.52128 -53.5749
rfingers 7.12502
rthumb 23.1733 -82.2009
lclavicle -1.01815e-014 -8.44835e-016
lhumerus -45.6809 5.81963 81.5398
lradius 39.3022
lwrist -16.2069
lhand -6.31117 -25.2836
lfingers 7.12502
lthumb 19.5332 3.75522
rfemur -2.15437 18.9206 29.2438
rtibia 25.5526
rfoot -23.9413 -35.9579
rtoes -7.45556
lfemur -7.87207 -21.4238 -24.6891
ltibia 31.2325
lfoot -23.7736 17.9032
ltoes -30.6876
179
root 7.8163 15.1492 41.8118 176.608 -1.95904 -179.206
lowerback 7.88111 1.05939 1.63075
upperback -4.18041 1.55619 0.0681688
thorax -8.81525 0.636675 -1.07895
lowerneck -9.91808 -1.73407 -5.00587
upperneck 23.171 -3.07882 1.799
head 8.98133 -2.16276 1.05643
rclavicle 2.64632e-015 9.69075e-016
rhumerus -47.1303 17.9826 -99.4943
rradius 34.3994
rwrist 13.8123
rhand -2.21671 -52.624
rfingers 7.12502
rthumb 23.4655 -81.213
lclavicle 2.64632e-015 9.69075e-016
lhumerus -45.8619 6.0483 81.4078
lradius 39.535
lwrist -16.3052
lhand -6.88169 -25.4929
lfingers 7.12502
lthumb 18.9846 3.60058
rfemur -2.20019 18.7721 29.206
rtibia 25.5733
rfoot -23.974 -35.9064
rtoes -7.20037
lfemur -7.89627 -21.4282 -24.6808
ltibia 31.2306
lfoot -23.8024 17.9399
ltoes -30.2323
180
root 7.81475 15.1488 41.8117 176.629 -2.03805 -179.197
lowerback 7.91109 1.06111 1.69684
upperback -4.16654 1.56448 0.0263648
thorax -8.81474 0.635973 -1.16223
lowerneck -9.87299 -1.793 -5.0141
upperneck 22.9845 -3.15805 1.88983
head 8.91308 -2.18073 1.08264
rclavicle 7.83336e-015 1.81391e-015
rhumerus -46.5872 16.3446 -98.1959
rradius 34.553
rwrist 15.111
rhand -1.55379 -52.24
rfingers 7.12502
rthumb 24.1013 -80.7463
lclavicle 7.83336e-015 1.81391e-015
lhumerus -45.9132 6.14115 81.1661
lradius 39.7697
lwrist -16.3656
lhand -7.65374 -26.0031
lfingers 7.12502
lthumb 18.242 3.16153
rfemur -2.26649 18.5572 29.1623
rtibia 25.6081
rfoot -23.971 -35.8592
rtoes -7.30132
lfemur -7.93168 -21.502 -24.675
ltibia 31.2246
lfoot -23.8191 17.931
ltoes -31.1514
